<svg width="27" height="31" viewBox="0 0 27 31" fill="none" xmlns="http://www.w3.org/2000/svg">
<path d="M26.2495 7.34349C26.2186 7.26948 26.174 7.20286 26.1182 7.14705L20.0248 1.05368C19.969 0.997872 19.9024 0.953311 19.8284 0.922373C19.7547 0.891611 19.6751 0.875 19.5937 0.875H8.62497C8.28844 0.875 8.01563 1.14781 8.01563 1.48435V4.53125H1.31247C0.975937 4.53125 0.703125 4.80406 0.703125 5.1406V29.5156C0.703125 29.8521 0.975937 30.1249 1.31247 30.1249H18.3749C18.7115 30.1249 18.9843 29.8521 18.9843 29.5156V26.4688H25.6874C26.024 26.4688 26.2968 26.1959 26.2968 25.8594V7.57816C26.2969 7.49677 26.2803 7.41714 26.2495 7.34349ZM20.2032 2.95537L24.2165 6.96872H20.2032V2.95537ZM17.7656 28.9062H1.9219V5.75003H11.6719V11.2344C11.6719 11.5709 11.9447 11.8438 12.2812 11.8438H17.7656V28.9062ZM16.904 10.625H12.8907V6.61162L16.904 10.625ZM18.9844 25.25V11.2344C18.9844 11.153 18.9678 11.0735 18.937 10.9997C18.9061 10.9257 18.8615 10.8591 18.8057 10.8033L12.7123 4.70993C12.6565 4.65412 12.5899 4.60956 12.5159 4.57862C12.4422 4.54786 12.3626 4.53125 12.2812 4.53125H9.23432V2.09378H18.9844V7.57816C18.9844 7.91469 19.2572 8.1875 19.5937 8.1875H25.0781V25.25H18.9844Z" fill="#F4F6F9"/>
</svg>
