<svg width="27" height="31" fill="none" xmlns="http://www.w3.org/2000/svg"><path d="M26.25 7.343a.61.61 0 00-.132-.196l-6.093-6.093a.61.61 0 00-.431-.179H8.625a.61.61 0 00-.61.61V4.53H1.313a.61.61 0 00-.609.61v24.375a.61.61 0 00.61.609h17.062a.61.61 0 00.61-.61V26.47h6.702a.61.61 0 00.61-.61V7.58a.606.606 0 00-.047-.236zm-6.047-4.388l4.014 4.014h-4.014V2.955zm-2.437 25.951H1.922V5.75h9.75v5.484c0 .337.273.61.61.61h5.484v17.062zm-.862-18.281h-4.013V6.612l4.013 4.013zm2.08 14.625V11.234a.609.609 0 00-.178-.43L12.712 4.71a.61.61 0 00-.43-.179H9.233V2.094h9.75v5.484c0 .337.273.61.61.61h5.484V25.25h-6.094z" fill="#F4F6F9"/></svg>